# xmcd CD database file
#
# Track frame offsets:
#	150
#	30575
#	67700
#	102265
#	135390
#	162512
#	191147
#	224680
#	249307
#	267217
#
# Disc length: 3852 seconds
#
# Revision: 0
# Processed by: cddbd v1.5.2PL0 Copyright (c) Steve Scherf et al.
# Submitted via: CDex 1.70beta2
#
DISCID=8a0f0a0a
DTITLE=Peter Erskine - From Kenton to Now
DYEAR=1995
DGENRE=Jazz
TTITLE0=L.A. Stomp
TTITLE1=Blues for All
TTITLE2=Happy Day
TTITLE3=Artistry in Rhythm
TTITLE4=I Love You (Sweetheart Of All My Dreams)
TTITLE5=Modern Drummer Blues
TTITLE6=Intermission Riff
TTITLE7=The Park
TTITLE8=Richard's Blues
TTITLE9=Constance
EXTD=YEAR: 1995
EXTT0=
EXTT1=
EXTT2=
EXTT3=
EXTT4=
EXTT5=
EXTT6=
EXTT7=
EXTT8=
EXTT9=
PLAYORDER=
